# xmcd CD database file
#
# Track frame offsets:
#	150
#	15685
#	40043
#	67616
#	103154
#	139421
#	160648
#	201110
#	239032
#	301824
#	313587
#
# Disc length: 4364 seconds
#
# Revision: 0
# Processed by: cddbd v1.5.2PL0 Copyright (c) Steve Scherf et al.
# Submitted via: CDex 1.77
#
DISCID=8c110a0b
DTITLE=Time In Space - demo +live
DYEAR=1973
DGENRE=Jazz
TTITLE0=As far as possible (Escher)
TTITLE1=Tomorrow city (Auger)
TTITLE2=Pleasure (Escher)
TTITLE3=The greenies are coming (Escher)
TTITLE4=Portrait of an obstinate lady (Escher)
TTITLE5=Don't change horses (Williams)
TTITLE6=Redemption (Thomas)
TTITLE7=Pleasure (Escher)
TTITLE8=The greenies are coming (Escher)
TTITLE9=Sunday is here again (Escher)
TTITLE10=Tomorrow city (Auger)
EXTD=YEAR: 1973
EXTT0=
EXTT1=
EXTT2=
EXTT3=
EXTT4=
EXTT5=
EXTT6=
EXTT7=
EXTT8=
EXTT9=
EXTT10=
PLAYORDER=
